<?xml version="1.0" encoding="UTF-8"?>
<svg id="b" data-name="Слой 2" xmlns="http://www.w3.org/2000/svg" width="786.36" height="187.5" viewBox="0 0 786.36 187.5">
  <defs>
    <style>
      .d {
        fill: #b5c2d7;
        opacity: .8;
      }

      .e {
        fill: #c9c9c9;
      }

      .f {
        fill: #4c5664;
        opacity: .7;
      }
    </style>
  </defs>
  <g id="c" data-name="Слой 1">
    <g>
      <rect class="e" x="111.36" y="10.23" width="563.64" height="140.91" rx="32.95" ry="32.95"/>
      <rect class="f" y="70.45" width="137.5" height="80.68" rx="22.73" ry="22.73"/>
      <rect class="d" x="74.43" y="135.23" width="84.66" height="52.27" rx="19.03" ry="19.03"/>
      <rect class="d" x="597.3" width="100.85" height="75" rx="19.03" ry="19.03"/>
      <rect class="f" x="647.73" y="37.5" width="138.64" height="80.68" rx="22.73" ry="22.73"/>
      <rect class="d" x="710.37" y="94.32" width="61.22" height="47.73" rx="19.03" ry="19.03"/>
      <g>
        <path d="m185.33,42.53l-1.74,2.4c-3.05-2.86-6.52-4.3-10.41-4.3-2.54,0-4.91.62-7.12,1.86-2.21,1.24-3.93,2.91-5.18,5-1.24,2.1-1.87,4.35-1.87,6.76,0,2.15.48,4.06,1.44,5.73s2.34,2.97,4.15,3.92c1.81.94,3.88,1.42,6.21,1.42,3.55,0,6.87-1.13,9.94-3.38l1.6,2.29c-2.28,1.49-4.24,2.49-5.88,3.01s-3.54.78-5.68.78c-3.97,0-7.21-1-9.71-2.99-3.32-2.67-4.98-6.23-4.98-10.68s1.66-8.5,4.98-11.7,7.45-4.8,12.38-4.8c2.25,0,4.3.35,6.15,1.06,1.85.71,3.75,1.92,5.7,3.62Z"/>
        <path d="m200.35,45.5c1.81,0,3.47.43,4.98,1.3,1.51.87,2.69,2.07,3.54,3.61.85,1.54,1.27,3.29,1.27,5.24,0,2.23-.54,4.29-1.62,6.2-1.08,1.91-2.53,3.38-4.36,4.42-1.82,1.04-3.89,1.56-6.19,1.56-2.85,0-5.2-.93-7.04-2.8-1.84-1.87-2.76-4.25-2.76-7.14,0-2.27.54-4.36,1.62-6.27,1.08-1.91,2.56-3.41,4.44-4.5,1.88-1.09,3.92-1.63,6.12-1.63Zm-.07,2.6c-1.69,0-3.29.42-4.78,1.27-1.49.85-2.64,2.01-3.44,3.49-.8,1.48-1.2,3.11-1.2,4.89,0,2.24.69,4.06,2.07,5.46,1.38,1.4,3.17,2.1,5.36,2.1,1.71,0,3.26-.41,4.64-1.22,1.39-.81,2.49-1.99,3.31-3.53.82-1.54,1.23-3.18,1.23-4.94,0-1.47-.31-2.78-.92-3.92-.61-1.14-1.48-2.02-2.6-2.66-1.12-.63-2.35-.95-3.68-.95Z"/>
        <path d="m236.03,57.22h-18.95c-.04,2.53.62,4.51,1.97,5.96,1.35,1.45,3.16,2.17,5.41,2.17,1.5,0,2.88-.31,4.16-.92,1.28-.61,2.33-1.47,3.16-2.58l2.03,1.66c-1.03,1.32-2.37,2.37-4.03,3.15s-3.45,1.18-5.38,1.18c-3.33,0-5.84-1.03-7.51-3.1-1.67-2.06-2.51-4.38-2.51-6.96,0-2.11.56-4.14,1.69-6.09,1.13-1.95,2.63-3.47,4.52-4.56,1.89-1.09,3.93-1.63,6.13-1.63,2.72,0,4.97.92,6.76,2.76,1.78,1.84,2.68,4.19,2.68,7.04,0,.52-.05,1.16-.14,1.91Zm-2.5-2.38c-.08-2-.76-3.62-2.05-4.86-1.29-1.24-2.91-1.86-4.86-1.86-2.12,0-3.99.6-5.62,1.79-1.62,1.19-2.77,2.84-3.45,4.93h15.98Z"/>
        <path d="m239.94,64.97l10.75-18.93h1.45l5.61,18.93h2.56l-.69,5.04h-2.68l.37-2.71h-17.6l-.37,2.83h-2.68l.7-5.16h2.58Zm10.85-14.4l-7.98,14.4h11.96l-3.98-14.4Z"/>
        <path d="m269.22,46.05l-2.09,15.28,17.1-15.28h.21l-2.91,21.25h-2.73l2.05-15.14-16.87,15.14h-.33l2.87-21.25h2.7Z"/>
        <path d="m292.53,54.49h12.29l1.18-8.44h2.75l-2.87,21.25h-2.75l1.38-10.23h-12.33l-1.38,10.23h-2.75l2.87-21.25h2.75l-1.14,8.44Z"/>
        <path d="m324.7,67.3h-2.72l1.29-9.51h-1.91l-7.28,9.51h-3.38l7.78-9.81c-1.32-.34-2.37-.96-3.16-1.88s-1.18-1.95-1.18-3.11c0-1.88.58-3.42,1.74-4.63,1.16-1.21,2.91-1.82,5.23-1.82h6.5l-2.91,21.25Zm-.16-18.87h-1.8c-1.66,0-2.81.08-3.46.25-.65.17-1.22.59-1.71,1.27-.49.68-.73,1.47-.73,2.4,0,1.13.4,1.93,1.21,2.41.81.47,2.06.71,3.74.71h1.8l.95-7.03Z"/>
        <path d="m353.18,57.22h-18.95c-.04,2.53.62,4.51,1.97,5.96,1.35,1.45,3.16,2.17,5.41,2.17,1.5,0,2.88-.31,4.16-.92,1.28-.61,2.33-1.47,3.16-2.58l2.03,1.66c-1.03,1.32-2.37,2.37-4.03,3.15s-3.45,1.18-5.38,1.18c-3.33,0-5.84-1.03-7.51-3.1-1.67-2.06-2.51-4.38-2.51-6.96,0-2.11.56-4.14,1.69-6.09,1.13-1.95,2.63-3.47,4.52-4.56,1.89-1.09,3.93-1.63,6.13-1.63,2.72,0,4.97.92,6.76,2.76,1.78,1.84,2.68,4.19,2.68,7.04,0,.52-.05,1.16-.14,1.91Zm-2.5-2.38c-.08-2-.76-3.62-2.05-4.86-1.29-1.24-2.91-1.86-4.86-1.86-2.12,0-3.99.6-5.62,1.79-1.62,1.19-2.77,2.84-3.45,4.93h15.98Z"/>
        <path d="m382.04,46.05h.79l3.78,21.25h-2.7l-2.66-15.76-10.08,15.76h-.79l-5.92-15.68-6.73,15.68h-2.73l9.23-21.25h.74l6.42,16.71,10.65-16.71Z"/>
        <path d="m427,46.05h.79l3.78,21.25h-2.7l-2.66-15.76-10.08,15.76h-.79l-5.92-15.68-6.73,15.68h-2.74l9.23-21.25h.74l6.42,16.71,10.65-16.71Z"/>
        <path d="m458.02,57.22h-18.95c-.04,2.53.62,4.51,1.97,5.96s3.16,2.17,5.41,2.17c1.5,0,2.88-.31,4.16-.92,1.28-.61,2.33-1.47,3.16-2.58l2.03,1.66c-1.03,1.32-2.37,2.37-4.03,3.15s-3.45,1.18-5.38,1.18c-3.33,0-5.84-1.03-7.51-3.1-1.67-2.06-2.51-4.38-2.51-6.96,0-2.11.56-4.14,1.69-6.09s2.63-3.47,4.52-4.56c1.89-1.09,3.93-1.63,6.13-1.63,2.72,0,4.97.92,6.76,2.76,1.78,1.84,2.68,4.19,2.68,7.04,0,.52-.05,1.16-.14,1.91Zm-2.5-2.38c-.08-2-.76-3.62-2.05-4.86-1.29-1.24-2.91-1.86-4.86-1.86-2.12,0-3.99.6-5.62,1.79-1.62,1.19-2.77,2.84-3.45,4.93h15.98Z"/>
        <path d="m472.66,57.71h-4.08c-1.38,0-2.49-.12-3.32-.36-.83-.24-1.55-.75-2.16-1.53-.61-.78-.91-1.74-.91-2.89,0-.34.05-.87.14-1.6l.72-5.27h2.72l-.54,3.85c-.21,1.45-.31,2.31-.31,2.6,0,1.09.24,1.85.73,2.27.48.42,1.54.62,3.16.62h4.18l1.26-9.34h2.75l-2.91,21.25h-2.72l1.3-9.59Z"/>
        <path d="m481.38,46.05h14l-.33,2.38h-5.63l-2.55,18.87h-2.75l2.55-18.87h-5.6l.31-2.38Z"/>
        <path d="m501.54,54.49h3.54c2.49,0,4.35.64,5.59,1.91,1.24,1.28,1.86,2.79,1.86,4.55,0,1.88-.61,3.4-1.82,4.58-1.21,1.18-3.39,1.77-6.54,1.77h-7.07l2.87-21.25h2.71l-1.14,8.44Zm-.24,2.58l-1.09,7.93h3.14c1.76,0,3-.1,3.73-.29s1.35-.61,1.87-1.24c.51-.63.77-1.42.77-2.35,0-1.3-.5-2.3-1.49-3-.99-.7-2.35-1.04-4.06-1.04h-2.87Zm17.37-11.02h2.75l-2.87,21.25h-2.75l2.87-21.25Z"/>
      </g>
      <g>
        <path d="m293.11,96.26h2.77l-.42,3.19c2.45-2.49,5.26-3.74,8.42-3.74,2.9,0,5.27.93,7.12,2.79,1.85,1.86,2.78,4.26,2.78,7.19,0,3.39-1.2,6.29-3.61,8.72-2.4,2.43-5.24,3.64-8.5,3.64-1.77,0-3.32-.37-4.66-1.12-1.34-.75-2.48-1.91-3.41-3.49l-1.58,11.83h-2.83l3.93-29.02Zm10.46,1.95c-1.74,0-3.34.41-4.79,1.24-1.45.83-2.6,2.01-3.44,3.56-.85,1.55-1.27,3.24-1.27,5.06,0,2.2.7,3.99,2.1,5.37,1.4,1.38,3.2,2.07,5.41,2.07,2.61,0,4.85-.94,6.71-2.83,1.86-1.89,2.79-4.21,2.79-6.95,0-2.25-.69-4.07-2.08-5.45-1.38-1.38-3.19-2.07-5.43-2.07Z"/>
        <path d="m339.12,107.43h-18.95c-.04,2.53.62,4.51,1.97,5.96,1.35,1.45,3.16,2.17,5.41,2.17,1.5,0,2.88-.31,4.16-.92,1.28-.61,2.33-1.47,3.16-2.58l2.03,1.66c-1.03,1.32-2.37,2.37-4.03,3.15s-3.45,1.18-5.38,1.18c-3.33,0-5.84-1.03-7.51-3.1-1.67-2.06-2.51-4.38-2.51-6.96,0-2.11.56-4.14,1.69-6.09,1.13-1.95,2.63-3.47,4.52-4.56,1.89-1.09,3.93-1.63,6.13-1.63,2.72,0,4.97.92,6.76,2.76,1.78,1.84,2.68,4.19,2.68,7.04,0,.52-.05,1.16-.14,1.91Zm-2.5-2.38c-.08-2-.76-3.62-2.05-4.86-1.29-1.24-2.91-1.86-4.86-1.86-2.12,0-3.99.6-5.62,1.79-1.62,1.19-2.77,2.84-3.45,4.93h15.98Z"/>
        <path d="m348.72,96.26l-2.09,15.28,17.1-15.28h.21l-2.91,21.25h-2.73l2.05-15.14-16.87,15.14h-.33l2.87-21.25h2.7Zm.6-8.52h2.58c.69,1.35,2.05,2.03,4.08,2.03,1.07,0,1.95-.15,2.64-.44.69-.29,1.37-.82,2.05-1.59h2.5c-.46,1.17-1.33,2.14-2.63,2.93-1.3.78-2.91,1.18-4.83,1.18s-3.42-.39-4.51-1.17c-1.09-.78-1.72-1.76-1.88-2.94Z"/>
        <path d="m390.14,100.85l-2.25,1.31c-1.57-2.55-3.98-3.83-7.22-3.83-1.87,0-3.58.42-5.13,1.25-1.55.83-2.76,1.99-3.63,3.48-.87,1.48-1.31,3.07-1.31,4.77,0,1.5.33,2.84.98,4.02.65,1.19,1.56,2.1,2.74,2.73,1.18.64,2.56.96,4.17.96s3.2-.33,4.69-.98c1.49-.65,2.65-1.49,3.48-2.52l2.25,1.58c-1.41,1.54-2.93,2.66-4.58,3.37-1.65.71-3.56,1.06-5.73,1.06-3.36,0-5.98-.91-7.86-2.74-1.88-1.83-2.82-4.27-2.82-7.31,0-3.39,1.23-6.28,3.7-8.68,2.47-2.4,5.49-3.6,9.07-3.6,2.15,0,4.04.45,5.68,1.36,1.64.91,2.9,2.17,3.77,3.78Z"/>
        <path d="m409.37,105.2h1.41c1.15,0,2.13-.37,2.96-1.1.83-.74,1.24-1.67,1.24-2.8,0-.99-.33-1.76-1-2.3s-1.53-.82-2.6-.82c-1.41,0-2.87.6-4.38,1.8l-1.29-1.88c1.77-1.59,3.81-2.38,6.12-2.38,1.72,0,3.12.5,4.21,1.49,1.09.99,1.63,2.26,1.63,3.79,0,2.21-1.15,3.95-3.46,5.22,1.99,1.13,2.99,2.81,2.99,5.04,0,1.99-.65,3.62-1.95,4.89s-3.16,1.9-5.57,1.9c-2.83,0-5.22-.94-7.19-2.81l1.84-1.8c1.59,1.51,3.35,2.27,5.28,2.27,1.52,0,2.72-.43,3.58-1.29s1.29-1.95,1.29-3.26c0-1.08-.37-1.95-1.1-2.62-.74-.66-1.6-1-2.59-1h-1.72l.31-2.34Z"/>
        <path d="m442.54,117.51h-2.75l.42-3.19c-2.46,2.49-5.26,3.74-8.43,3.74-2.88,0-5.25-.93-7.1-2.79-1.85-1.86-2.78-4.26-2.78-7.19,0-3.39,1.21-6.29,3.63-8.72,2.42-2.43,5.26-3.64,8.53-3.64,1.77,0,3.33.37,4.66,1.11,1.34.74,2.46,1.9,3.37,3.47l.49-4.04h2.83l-2.87,21.25Zm-10.46-1.95c1.75,0,3.35-.41,4.79-1.24s2.58-2.02,3.42-3.57c.84-1.55,1.26-3.24,1.26-5.06,0-2.2-.69-3.99-2.08-5.37-1.39-1.38-3.19-2.07-5.41-2.07-2.61,0-4.84.94-6.69,2.83-1.86,1.89-2.78,4.21-2.78,6.95,0,2.25.69,4.07,2.08,5.45,1.39,1.38,3.19,2.07,5.41,2.07Z"/>
        <path d="m463.17,96.26h2.77l-.42,3.19c2.46-2.49,5.26-3.74,8.42-3.74,2.9,0,5.27.93,7.12,2.79,1.85,1.86,2.78,4.26,2.78,7.19,0,3.39-1.2,6.29-3.61,8.72-2.4,2.43-5.24,3.64-8.5,3.64-1.77,0-3.32-.37-4.66-1.12-1.34-.75-2.48-1.91-3.41-3.49l-1.58,11.83h-2.83l3.93-29.02Zm10.46,1.95c-1.74,0-3.34.41-4.79,1.24s-2.6,2.01-3.44,3.56-1.27,3.24-1.27,5.06c0,2.2.7,3.99,2.1,5.37,1.4,1.38,3.2,2.07,5.41,2.07,2.61,0,4.85-.94,6.71-2.83,1.86-1.89,2.79-4.21,2.79-6.95,0-2.25-.69-4.07-2.08-5.45-1.38-1.38-3.19-2.07-5.43-2.07Z"/>
        <path d="m509.18,107.43h-18.95c-.04,2.53.62,4.51,1.97,5.96s3.16,2.17,5.41,2.17c1.5,0,2.88-.31,4.16-.92,1.28-.61,2.33-1.47,3.16-2.58l2.03,1.66c-1.03,1.32-2.37,2.37-4.03,3.15s-3.45,1.18-5.38,1.18c-3.33,0-5.84-1.03-7.51-3.1-1.67-2.06-2.51-4.38-2.51-6.96,0-2.11.56-4.14,1.69-6.09,1.13-1.95,2.63-3.47,4.52-4.56,1.89-1.09,3.93-1.63,6.13-1.63,2.72,0,4.97.92,6.76,2.76,1.78,1.84,2.68,4.19,2.68,7.04,0,.52-.05,1.16-.14,1.91Zm-2.5-2.38c-.08-2-.76-3.62-2.05-4.86-1.29-1.24-2.91-1.86-4.86-1.86-2.12,0-3.99.6-5.62,1.79-1.62,1.19-2.77,2.84-3.45,4.93h15.98Z"/>
        <path d="m518.78,96.26l-2.09,15.28,17.1-15.28h.21l-2.91,21.25h-2.73l2.05-15.14-16.87,15.14h-.33l2.87-21.25h2.7Zm.6-8.52h2.58c.69,1.35,2.05,2.03,4.08,2.03,1.07,0,1.95-.15,2.64-.44s1.37-.82,2.05-1.59h2.5c-.46,1.17-1.33,2.14-2.63,2.93s-2.91,1.18-4.83,1.18-3.42-.39-4.51-1.17c-1.09-.78-1.72-1.76-1.88-2.94Z"/>
        <path d="m560.2,100.85l-2.25,1.31c-1.57-2.55-3.98-3.83-7.22-3.83-1.87,0-3.58.42-5.13,1.25-1.55.83-2.76,1.99-3.63,3.48-.87,1.48-1.31,3.07-1.31,4.77,0,1.5.33,2.84.98,4.02.65,1.19,1.56,2.1,2.74,2.73,1.18.64,2.57.96,4.17.96s3.2-.33,4.69-.98c1.49-.65,2.65-1.49,3.48-2.52l2.25,1.58c-1.41,1.54-2.93,2.66-4.58,3.37s-3.56,1.06-5.73,1.06c-3.36,0-5.98-.91-7.86-2.74-1.88-1.83-2.82-4.27-2.82-7.31,0-3.39,1.23-6.28,3.7-8.68s5.49-3.6,9.07-3.6c2.15,0,4.04.45,5.68,1.36,1.64.91,2.9,2.17,3.77,3.78Z"/>
        <path d="m575.96,95.71c1.81,0,3.47.43,4.98,1.3,1.51.87,2.69,2.07,3.54,3.61s1.27,3.29,1.27,5.24c0,2.23-.54,4.29-1.62,6.2-1.08,1.91-2.53,3.38-4.36,4.42s-3.89,1.56-6.19,1.56c-2.85,0-5.2-.93-7.04-2.8-1.84-1.87-2.76-4.25-2.76-7.14,0-2.27.54-4.36,1.62-6.27s2.56-3.41,4.44-4.5c1.88-1.09,3.92-1.63,6.12-1.63Zm-.07,2.6c-1.69,0-3.29.42-4.78,1.27-1.49.85-2.64,2.01-3.44,3.49-.8,1.48-1.2,3.11-1.2,4.89,0,2.24.69,4.06,2.07,5.46,1.38,1.4,3.17,2.1,5.36,2.1,1.71,0,3.25-.41,4.64-1.22,1.39-.81,2.49-1.99,3.31-3.53.82-1.54,1.23-3.18,1.23-4.94,0-1.47-.31-2.78-.92-3.92-.61-1.14-1.48-2.02-2.6-2.66-1.12-.63-2.35-.95-3.68-.95Z"/>
        <path d="m614.5,96.26h.79l3.78,21.25h-2.7l-2.66-15.76-10.08,15.76h-.79l-5.92-15.68-6.73,15.68h-2.74l9.23-21.25h.74l6.42,16.71,10.65-16.71Z"/>
      </g>
    </g>
  </g>
</svg>